<?xml version="1.0" encoding="UTF-8"?>
<svg width="200" height="50" viewBox="0 0 200 50" fill="none" xmlns="http://www.w3.org/2000/svg">
  <defs>
    <linearGradient id="logoGradient" x1="0%" y1="0%" x2="100%" y2="0%">
      <stop offset="0%" style="stop-color:#2563EB;stop-opacity:1" />
      <stop offset="100%" style="stop-color:#7C3AED;stop-opacity:1" />
    </linearGradient>
  </defs>
  
  <!-- Infinity Symbol -->
  <path d="M30 25C30 28 32 35 40 35C48 35 50 28 50 25C50 22 48 15 40 15C32 15 30 22 30 25Z" stroke="url(#logoGradient)" stroke-width="3"/>
  <path d="M50 25C50 28 52 35 60 35C68 35 70 28 70 25C70 22 68 15 60 15C52 15 50 22 50 25Z" stroke="url(#logoGradient)" stroke-width="3"/>
  
  <!-- Graph Lines -->
  <path d="M80 30L90 15L100 35L110 20L120 40" stroke="#10B981" stroke-width="2" stroke-linecap="round"/>
  
  <!-- Text -->
  <text x="140" y="32" font-family="Inter" font-size="20" font-weight="700" fill="#1E293B">
    INFINITY
  </text>
  <text x="140" y="42" font-family="Inter" font-size="12" font-weight="500" fill="#64748B">
    MUTUAL FUNDS
  </text>
</svg>