<?xml version="1.0" encoding="UTF-8"?>
<svg width="24" height="24" viewBox="0 0 24 24" fill="none" xmlns="http://www.w3.org/2000/svg">
  <path d="M12 15C13.6569 15 15 13.6569 15 12C15 10.3431 13.6569 9 12 9C10.3431 9 9 10.3431 9 12C9 13.6569 10.3431 15 12 15Z" stroke="#64748B" stroke-width="2" stroke-linecap="round" stroke-linejoin="round"/>
  <path d="M19.4 15C19.2662 15.3068 19.1999 15.64 19.2 16C19.2 16.72 19.48 17.4 19.98 17.9C20.48 18.4 21.16 18.68 21.88 18.68C22.24 18.68 22.5733 18.6138 22.88 18.48L22.88 21.28C22.88 21.52 22.8 21.72 22.64 21.88C22.48 22.04 22.28 22.12 22.04 22.12H17.96C17.72 22.12 17.52 22.04 17.36 21.88C17.2 21.72 17.12 21.52 17.12 21.28V18.44C16.5067 18.9867 15.7867 19.3467 15 19.52V21.28C15 21.52 14.92 21.72 14.76 21.88C14.6 22.04 14.4 22.12 14.16 22.12H9.84C9.6 22.12 9.4 22.04 9.24 21.88C9.08 21.72 9 21.52 9 21.28V19.52C8.21333 19.3467 7.49333 18.9867 6.88 18.44V21.28C6.88 21.52 6.8 21.72 6.64 21.88C6.48 22.04 6.28 22.12 6.04 22.12H1.96C1.72 22.12 1.52 22.04 1.36 21.88C1.2 21.72 1.12 21.52 1.12 21.28V18.48C1.42667 18.6138 1.76 18.68 2.12 18.68C2.84 18.68 3.52 18.4 4.02 17.9C4.52 17.4 4.8 16.72 4.8 16C4.8 15.64 4.73378 15.3068 4.6 15C4.73378 14.6932 4.8 14.36 4.8 14C4.8 13.28 4.52 12.6 4.02 12.1C3.52 11.6 2.84 11.32 2.12 11.32C1.76 11.32 1.42667 11.3862 1.12 11.52V8.72C1.12 8.48 1.2 8.28 1.36 8.12C1.52 7.96 1.72 7.88 1.96 7.88H6.04C6.28 7.88 6.48 7.96 6.64 8.12C6.8 8.28 6.88 8.48 6.88 8.72V11.56C7.49333 11.0133 8.21333 10.6533 9 10.48V8.72C9 8.48 9.08 8.28 9.24 8.12C9.4 7.96 9.6 7.88 9.84 7.88H14.16C14.4 7.88 14.6 7.96 14.76 8.12C14.92 8.28 15 8.48 15 8.72V10.48C15.7867 10.6533 16.5067 11.0133 17.12 11.56V8.72C17.12 8.48 17.2 8.28 17.36 8.12C17.2 7.96 17.4 7.88 17.64 7.88H21.72C21.96 7.88 22.16 7.96 22.32 8.12C22.48 8.28 22.56 8.48 22.56 8.72V11.52C22.2533 11.3862 21.92 11.32 21.56 11.32C20.84 11.32 20.16 11.6 19.66 12.1C19.16 12.6 18.88 13.28 18.88 14C18.88 14.36 18.9462 14.6932 19.08 15Z" stroke="#64748B" stroke-width="2" stroke-linecap="round" stroke-linejoin="round"/>
</svg>